<?xml version="1.0" encoding="utf-8"?>
<!-- Generator: Adobe Illustrator 19.0.0, SVG Export Plug-In . SVG Version: 6.00 Build 0)  -->
<svg version="1.1" id="layer" xmlns="http://www.w3.org/2000/svg" xmlns:xlink="http://www.w3.org/1999/xlink" x="0px" y="0px"
	 viewBox="-153 -46 652 652" style="enable-background:new -153 -46 652 652;" xml:space="preserve">
<style type="text/css">
	.st0{fill:#464647;}
	.st1{fill:#FFFFFF;}
	.st2{fill:#D6E037;}
</style>
<rect x="-126.8" y="178.7" class="st0" width="600" height="200"/>
<path class="st1" d="M-35.3,265.6c-6.9,3.7-11.8,4.9-19.2,4.9c-18.8,0-28.6-12.2-28.6-24.9c0-13.1,10.6-25.3,29.4-25.3
	c6.9,0,13.1,1.2,17.6,4.1v11c-5.3-2.9-10.6-4.9-16.7-4.9c-10.2,0-17.6,6.1-17.6,14.7s7.3,15.1,17.6,15.1c6.5,0,10.6-2,17.6-5.3
	L-35.3,265.6 M11.7,269.7h-36.3v-49h35.5v9h-23.3v10.2H10v9h-22.4v11.8h24.1V269.7z M72.5,269.7H62.3l-26.9-31.4v31.4H23.1v-49h11
	l26.1,30.2v-30.2h12.2L72.5,269.7z M128,229.7h-17.6v40H98.2v-40H80.7v-9H128V229.7z M171.7,269.7h-35.1v-49h35.1v9h-23.3v10.2h22.4
	v9h-22.4v11.8h23.3V269.7z M233.3,269.7h-10.2l-26.9-31.4v31.4h-11.8v-49h11l26.1,30.2v-30.2h11.8V269.7z M296.2,269.7H286
	L259,238.2v31.4h-12.2v-49h11l26.1,30.2v-30.2h12.2V269.7z M309.2,220.7h12.2v48.6h-12.2V220.7z M357.4,232.5l-7.3,18.8h15.1
	C365.1,251.3,357.4,232.5,357.4,232.5z M386,269.7h-13.1l-4.1-9.8h-21.6l-3.7,9.8h-13.1l19.6-48.6h13.9L386,269.7z M431.7,269.7
	h-37.1v-49h12.2v40h24.9V269.7z"/>
<path class="st2" d="M161.1,297c-6.1-3.7-11-4.9-16.7-4.9c-11,0-19.6,7.8-19.6,18.8c0,11,8.2,18.4,19.6,18.4c5.3,0,11.4-2,17.1-5.7
	v7.8c-4.9,2.4-9.8,4.5-17.6,4.5c-18.4,0-26.1-14.3-26.1-24.5c0-14.7,11-25.7,26.5-25.7c4.9,0,10.2,1.2,16.7,4.1L161.1,297
	 M195.8,329.3c11,0,19.2-7.8,19.2-18.8c0-10.6-8.2-18.8-19.2-18.8c-11,0-18.8,7.8-18.8,18.8C176.6,321.1,184.7,329.3,195.8,329.3
	 M195.8,285.6c15.9,0,26.1,11.4,26.1,24.9c0,13.1-9.8,24.9-26.5,24.9c-15.9,0-26.1-11.8-26.1-24.9
	C169.6,297,179.8,285.6,195.8,285.6 M239,328.8h22v6.1h-29v-48.6h6.9V328.8z M279,328.8h22v6.1h-29v-48.6h6.9V328.8z M339,292.5
	h-21.6v14.7h20v6.5h-20v15.1H339v6.1h-28.6v-48.6H339V292.5z M391.7,331.7c-6.5,2.9-11.8,4.1-18.8,4.1c-15.1,0-26.1-10.6-26.1-24.9
	c0-14.3,11.4-25.3,26.1-25.3c5.7,0,9.8,0.8,17.6,4.1v6.9c-5.7-3.3-11.8-4.9-17.6-4.9c-10.6,0-18.8,8.2-18.8,18.8
	c0,11,8.2,18.4,19.6,18.4c3.7,0,7.3-0.8,10.6-2V317h-9.4v-6.1h16.3v20.8 M431.7,292.5h-20.8v14.7h20v6.5h-20v15.1h20.8v6.1h-27.8
	v-48.6h27.8V292.5z"/>
</svg>
